<svg height='200' width='200'  fill="#000000" xmlns="http://www.w3.org/2000/svg" xmlns:xlink="http://www.w3.org/1999/xlink" version="1.1" x="0px" y="0px" viewBox="0 0 30 30" xml:space="preserve"><g transform="translate(-210 -380)"><g xmlns="http://www.w3.org/2000/svg" xmlns:xlink="http://www.w3.org/1999/xlink"><path d="M233,389c1.104,0,2-0.896,2-2s-0.896-2-2-2c-1.104,0-2,0.896-2,2S231.896,389,233,389z M233,386c0.553,0,1,0.447,1,1    s-0.447,1-1,1s-1-0.447-1-1S232.447,386,233,386z"></path><path d="M234.659,395.241l3.341-3.341V382h-9.899l-16.264,16.264l9.9,9.899l3.581-3.582c0.928,3.089,3.79,5.341,7.182,5.341    c4.143,0,7.5-3.357,7.5-7.5C240,399.03,237.748,396.168,234.659,395.241z M221.737,406.749l-8.486-8.485L228.515,383H237v8.485    l-3.51,3.509c-0.324-0.043-0.653-0.073-0.99-0.073c-4.143,0-7.5,3.357-7.5,7.5c0,0.337,0.029,0.666,0.072,0.991L221.737,406.749z     M232.5,408.922c-3.59,0-6.5-2.91-6.5-6.5s2.91-6.5,6.5-6.5s6.5,2.91,6.5,6.5S236.09,408.922,232.5,408.922z"></path><polygon points="233.568,400.922 232.5,397.707 231.43,400.922 228,400.922 230.768,403 229.717,406.266 232.5,404.258     235.278,406.266 234.23,403 237,400.922   "></polygon></g></g></svg>
